<?xml version="1.0" encoding="UTF-8" standalone="no"?>
<svg
   xmlns:dc="http://purl.org/dc/elements/1.1/"
   xmlns:cc="http://creativecommons.org/ns#"
   xmlns:rdf="http://www.w3.org/1999/02/22-rdf-syntax-ns#"
   xmlns:svg="http://www.w3.org/2000/svg"
   xmlns="http://www.w3.org/2000/svg"
   xmlns:sodipodi="http://sodipodi.sourceforge.net/DTD/sodipodi-0.dtd"
   xmlns:inkscape="http://www.inkscape.org/namespaces/inkscape"
   version="1.1"
   xml:space="preserve"
   height="32"
   width="32"
   enable-background="new 0 0 595.275 311.111"
   y="0px"
   x="0px"
   viewBox="0 0 32 31.999997"
   id="svg2"
   inkscape:version="0.91 r13725"
   sodipodi:docname="favicon.svg"
   inkscape:export-filename="/home/chais/AUR/nextcloud-theme-material/material-light/core/img/favicon.png"
   inkscape:export-xdpi="22.5"
   inkscape:export-ydpi="22.5"><metadata
     id="metadata12"><rdf:RDF><cc:Work
         rdf:about=""><dc:format>image/svg+xml</dc:format><dc:type
           rdf:resource="http://purl.org/dc/dcmitype/StillImage" /><dc:title></dc:title></cc:Work></rdf:RDF></metadata><defs
     id="defs10" /><sodipodi:namedview
     pagecolor="#ffffff"
     bordercolor="#666666"
     borderopacity="1"
     objecttolerance="10"
     gridtolerance="10"
     guidetolerance="10"
     inkscape:pageopacity="0"
     inkscape:pageshadow="2"
     inkscape:window-width="640"
     inkscape:window-height="480"
     id="namedview8"
     showgrid="false"
     inkscape:zoom="4.0997453"
     inkscape:cx="5.6521995"
     inkscape:cy="44.571956"
     inkscape:current-layer="svg2"
     fit-margin-top="0"
     fit-margin-left="0"
     fit-margin-right="0"
     fit-margin-bottom="0" /><rect
     rx="5"
     ry="5"
     height="32"
     width="32"
     y="-3.8146973e-06"
     x="0"
     id="rect4"
     style="fill:#1794d1;fill-opacity:1" /><path
     style="fill:#ffffff"
     d="M 16,5.9999962 C 11.416864,6.0026562 7.5677465,9.4489162 7.060547,14.003896 7.0403715,14.002476 7.020191,14.001176 7,13.999996 4.2385763,13.999996 2,16.238566 2,18.999996 2,21.761416 4.2385763,23.999996 7,23.999996 L 16,23.999996 24,23.999996 C 27.313707,23.999996 30,21.313706 30,17.999996 29.99788,14.874946 27.59735,12.274736 24.482422,12.023436 23.219352,8.4192062 19.819133,6.0046862 16,5.9999962 Z M 16.008789,8.9970662 C 17.106809,11.573806 17.365919,12.366156 20.567871,18.327626 20.163003,18.084546 19.643411,17.866716 18.917969,17.678216 19.9734,18.219936 20.490755,18.720496 20.986816,19.104976 21.301744,19.688946 21.632,20.302206 22.001465,20.982416 20.127725,19.900676 18.670795,19.226446 17.313476,18.960936 17.358606,18.756626 17.384468,18.536106 17.390137,18.307126 17.420276,17.090206 16.8373,16.051816 16.087402,15.988276 15.337505,15.924736 14.704456,16.860226 14.674317,18.077146 L 14.672363,18.138176 C 14.670088,18.424206 14.703283,18.698226 14.762207,18.951656 13.38999,19.209616 11.917506,19.885836 10.018067,20.982416 12.434759,16.640116 13.625624,14.380526 14.385742,12.794426 14.783565,13.128996 15.31627,13.451316 16.09668,13.772456 15.370783,13.264766 14.923724,12.815686 14.55957,12.429686 15.153501,11.160676 15.475335,10.304946 16.008789,8.9970662 Z"
     id="path6"
     inkscape:connector-curvature="0" /></svg>