<?xml version="1.0" encoding="UTF-8" standalone="no"?>
<svg
   xmlns:dc="http://purl.org/dc/elements/1.1/"
   xmlns:cc="http://creativecommons.org/ns#"
   xmlns:rdf="http://www.w3.org/1999/02/22-rdf-syntax-ns#"
   xmlns:svg="http://www.w3.org/2000/svg"
   xmlns="http://www.w3.org/2000/svg"
   xmlns:sodipodi="http://sodipodi.sourceforge.net/DTD/sodipodi-0.dtd"
   xmlns:inkscape="http://www.inkscape.org/namespaces/inkscape"
   enable-background="new 0 0 595.275 311.111"
   xml:space="preserve"
   height="34"
   width="62"
   version="1.1"
   y="0px"
   x="0px"
   viewBox="0 0 62.001102 34"
   id="svg4920"
   inkscape:version="0.91 r13725"
   sodipodi:docname="logo-icon.svg"><metadata
     id="metadata4928"><rdf:RDF><cc:Work
         rdf:about=""><dc:format>image/svg+xml</dc:format><dc:type
           rdf:resource="http://purl.org/dc/dcmitype/StillImage" /></cc:Work></rdf:RDF></metadata><defs
     id="defs4926" /><sodipodi:namedview
     pagecolor="#ffffff"
     bordercolor="#666666"
     borderopacity="1"
     objecttolerance="10"
     gridtolerance="10"
     guidetolerance="10"
     inkscape:pageopacity="0"
     inkscape:pageshadow="2"
     inkscape:window-width="640"
     inkscape:window-height="480"
     id="namedview4924"
     showgrid="false"
     inkscape:snap-bbox="true"
     inkscape:bbox-nodes="true"
     inkscape:zoom="9.1826301"
     inkscape:cx="39.254514"
     inkscape:cy="13.709678"
     inkscape:current-layer="svg4920" /><path
     inkscape:connector-curvature="0"
     style="fill:#ffffff;fill-opacity:1"
     d="M 31.00113,2.9997 C 24.12641,3.0036862 18.352719,8.1730937 17.591919,15.005587 17.561656,15.003453 17.531384,15.001494 17.501098,14.999728 13.358953,14.999728 10.00108,18.357601 10.00108,22.499746 10.00108,26.64189 13.358953,29.999763 17.501098,29.999763 L 31.00113,29.999763 43.001158,29.999763 C 47.971732,29.999763 52.00118,25.970316 52.00118,20.999742 51.998,16.312159 48.397196,12.411836 43.724793,12.034877 41.830184,6.6285237 36.729844,3.0067375 31.00113,2.9997 Z M 31.014314,7.4953161 C 32.661348,11.360437 33.050013,12.548964 37.852953,21.491199 37.245649,21.126564 36.46626,20.799826 35.378093,20.517075 36.961244,21.329653 37.737278,22.080494 38.481372,22.657217 38.953764,23.533178 39.44915,24.453067 40.003348,25.473386 37.192733,23.850766 35.007331,22.839426 32.97135,22.441152 33.039044,22.134688 33.077837,21.803916 33.08634,21.460436 33.131549,19.635051 32.257083,18.077466 31.132233,17.982157 30.007385,17.886848 29.05781,19.290081 29.0126,21.115465 L 29.00967,21.207018 C 29.006257,21.636061 29.05605,22.047091 29.144436,22.427236 27.086106,22.814182 24.877374,23.828513 22.028209,25.473386 25.653256,18.959913 27.439558,15.570534 28.579737,13.191374 29.176473,13.693224 29.975532,14.176716 31.14615,14.658419 30.057302,13.896882 29.386713,13.22326 28.84048,12.644254 29.731378,10.740738 30.21413,9.4571496 31.014314,7.4953161 Z"
     id="path6" /></svg>