<?xml version="1.0" encoding="UTF-8" standalone="no"?>
<svg
   xmlns:dc="http://purl.org/dc/elements/1.1/"
   xmlns:cc="http://creativecommons.org/ns#"
   xmlns:rdf="http://www.w3.org/1999/02/22-rdf-syntax-ns#"
   xmlns:svg="http://www.w3.org/2000/svg"
   xmlns="http://www.w3.org/2000/svg"
   xmlns:sodipodi="http://sodipodi.sourceforge.net/DTD/sodipodi-0.dtd"
   xmlns:inkscape="http://www.inkscape.org/namespaces/inkscape"
   xml:space="preserve"
   height="120.32899"
   viewBox="0 0 188.41409 120.32697"
   width="188.41408"
   version="1.1"
   y="0px"
   x="0px"
   enable-background="new 0 0 595.275 311.111"
   id="svg5523"
   inkscape:version="0.91 r13725"
   sodipodi:docname="logo.svg"><metadata
     id="metadata5533"><rdf:RDF><cc:Work
         rdf:about=""><dc:format>image/svg+xml</dc:format><dc:type
           rdf:resource="http://purl.org/dc/dcmitype/StillImage" /><dc:title></dc:title></cc:Work></rdf:RDF></metadata><defs
     id="defs5531" /><sodipodi:namedview
     pagecolor="#ffffff"
     bordercolor="#666666"
     borderopacity="1"
     objecttolerance="10"
     gridtolerance="10"
     guidetolerance="10"
     inkscape:pageopacity="0"
     inkscape:pageshadow="2"
     inkscape:window-width="640"
     inkscape:window-height="480"
     id="namedview5529"
     showgrid="false"
     inkscape:snap-bbox="true"
     inkscape:bbox-nodes="false"
     showguides="true"
     inkscape:guide-bbox="true"
     inkscape:object-paths="true"
     inkscape:snap-page="true"
     inkscape:snap-bbox-midpoints="true"
     fit-margin-left="3.5"
     fit-margin-right="3.5"
     fit-margin-bottom="7"
     fit-margin-top="10.5"
     inkscape:zoom="4.6663132"
     inkscape:cx="105.27614"
     inkscape:cy="53.549162"
     inkscape:current-layer="svg5523" /><path
     d="M 114.45409,82.544986 114.45409,112.93799 117.69409,112.93799 117.69409,82.544986 Z M 181.67409,82.544986 181.67409,91.255986 181.75409,92.759986 181.89409,94.302986 181.63409,94.302986 C 180.08409,92.192986 177.86409,91.138986 174.95409,91.138986 172.17409,91.138986 169.99409,92.114986 168.43409,94.067986 166.87409,96.021986 166.08409,98.761986 166.08409,102.28799 166.08409,105.81799 166.86409,108.53799 168.41409,110.45799 169.97409,112.36799 172.15409,113.32799 174.95409,113.32799 177.93409,113.32799 180.17409,112.23799 181.67409,110.06799 L 181.85409,110.06799 182.28409,112.93799 184.91409,112.93799 184.91409,82.544986 Z M 103.97409,83.970986 C 101.15409,83.970986 98.714086,84.569986 96.624086,85.767986 94.554086,86.965986 92.964086,88.670986 91.864086,90.884986 90.764086,93.097986 90.224086,95.676986 90.224086,98.618986 90.224086,103.31799 91.364086,106.94799 93.644086,109.49799 95.934086,112.04799 99.184086,113.32799 103.38409,113.32799 106.28409,113.32799 108.73409,112.95799 110.71409,112.20799 L 110.71409,109.29799 C 108.15409,110.01799 105.88409,110.37799 103.89409,110.37799 100.65409,110.37799 98.154086,109.35799 96.394086,107.32799 94.644086,105.28799 93.774086,102.39799 93.774086,98.657986 93.774086,95.025986 94.684086,92.166986 96.494086,90.083986 98.314086,87.987986 100.79409,86.939986 103.93409,86.939986 106.09409,86.939986 108.25409,87.446986 110.41409,88.462986 L 111.82409,85.610986 C 109.58409,84.517986 106.96409,83.970986 103.97409,83.970986 Z M 131.30109,91.138986 C 128.20109,91.138986 125.77109,92.114986 124.03109,94.067986 122.28109,96.008986 121.41109,98.722986 121.41109,102.20799 121.41109,104.46799 121.82109,106.42799 122.62109,108.10799 123.43109,109.78799 124.58109,111.07799 126.06109,111.97799 127.55109,112.87799 129.24109,113.32799 131.16109,113.32799 134.26109,113.32799 136.69109,112.34799 138.44109,110.39799 140.20109,108.42799 141.08109,105.69799 141.08109,102.20799 141.08109,98.814986 140.19109,96.118986 138.42109,94.126986 136.67109,92.134986 134.29109,91.138986 131.30109,91.138986 Z M 144.51109,91.528986 144.51109,105.53799 C 144.51109,108.25799 145.15109,110.23799 146.44109,111.46799 147.75109,112.70799 149.70109,113.32799 152.30109,113.32799 153.81109,113.32799 155.15109,113.04799 156.33109,112.48799 157.51109,111.92799 158.44109,111.11799 159.10109,110.06799 L 159.28109,110.06799 159.74109,112.93799 162.42109,112.93799 162.42109,91.528986 159.18109,91.528986 159.18109,102.77799 C 159.18109,105.54799 158.66109,107.54799 157.62109,108.77799 156.59109,109.99799 154.95109,110.60799 152.71109,110.60799 151.02109,110.60799 149.78109,110.17799 148.98109,109.31799 148.19109,108.46799 147.79109,107.15799 147.79109,105.41799 L 147.79109,91.528986 Z M 175.32109,93.853986 C 177.54109,93.853986 179.14109,94.504986 180.15109,95.806986 181.16109,97.095986 181.67109,99.256986 181.67109,102.28799 L 181.67109,102.97799 C 181.67109,105.65799 181.17109,107.60799 180.17109,108.81799 179.18109,110.00799 177.58109,110.60799 175.36109,110.60799 173.42109,110.60799 171.95109,109.91799 170.95109,108.51799 169.94109,107.12799 169.44109,105.06799 169.44109,102.32799 169.44109,99.634986 169.94109,97.551986 170.95109,96.079986 171.96109,94.595986 173.42109,93.853986 175.32109,93.853986 Z M 131.20109,93.892986 C 133.35109,93.892986 134.97109,94.601986 136.06109,96.021986 137.17109,97.427986 137.72109,99.491986 137.72109,102.20799 137.72109,104.95799 137.17109,107.04799 136.06109,108.47799 134.97109,109.89799 133.36109,110.60799 131.24109,110.60799 129.11109,110.60799 127.51109,109.89799 126.41109,108.46799 125.32109,107.02799 124.77109,104.94799 124.77109,102.20799 124.77109,99.452986 125.31109,97.375986 126.39109,95.982986 127.47109,94.588986 129.08109,93.892986 131.20109,93.892986 Z"
     id="path5525"
     inkscape:connector-curvature="0"
     style="fill:#ffffff"
     sodipodi:nodetypes="ccccccccccscscsccccccsccscsccscscsccsscsccscscscscssccccccscscsccscsscscscsscscscscs" /><path
     inkscape:connector-curvature="0"
     style="fill:#ffffff;fill-opacity:1"
     d="M 94.500776,10.498994 C 78.132606,10.508485 64.385896,22.816446 62.574486,39.084087 62.502436,39.079007 62.430356,39.074342 62.358246,39.070136 52.496126,39.070136 44.501286,47.064971 44.501286,56.9271 44.501286,66.789229 52.496126,74.784064 62.358246,74.784064 L 94.500776,74.784064 123.07193,74.784064 C 134.90648,74.784064 144.50029,65.190262 144.50029,53.355708 144.49272,42.194933 135.91948,32.908565 124.79485,32.011055 120.28393,19.138943 108.14042,10.515749 94.500776,10.498994 Z M 94.532176,21.202709 C 98.453636,30.405265 99.379016,33.235056 110.81445,54.525827 109.36851,53.657659 107.51284,52.879724 104.922,52.206515 108.69136,54.141199 110.53904,55.928895 112.31067,57.302027 113.4354,59.387623 114.61487,61.577809 115.93437,64.007107 109.24252,60.143777 104.03924,57.735853 99.191726,56.787593 99.352906,56.057925 99.445266,55.270384 99.465506,54.452586 99.573146,50.106484 97.491116,46.397994 94.812926,46.171069 92.134756,45.944145 89.873886,49.285136 89.766246,53.631235 L 89.759276,53.849215 C 89.751146,54.870734 89.869706,55.849365 90.080136,56.75446 85.179406,57.675751 79.920596,60.090792 73.136956,64.007107 81.767906,48.499032 86.020956,40.429182 88.735636,34.764585 90.156416,35.959453 92.058916,37.11061 94.846066,38.257505 92.253606,36.444344 90.656976,34.840503 89.356436,33.461933 91.477606,28.929808 92.626996,25.873685 94.532176,21.202709 Z"
     id="path6" /><g
     transform="matrix(0.20903053,0,0,0.20903053,-57.502613,25.584105)"
     id="g2809"
     style="fill:#ffffff;fill-opacity:1"><path
       d="M 339.96875,309.09375 C 325.49734,309.06985 313.48755,312.03742 308.84375,313.65625 L 304.0625,339.46875 C 304.0509,339.56385 327.85793,333.1202 338.34375,333.5 355.70533,334.12381 357.30323,340.13541 357,348.25 357.29595,348.72462 352.52067,340.91808 337.5,340.65625 318.55039,340.32938 291.80716,347.36572 291.84375,375.96875 291.33289,408.14287 315.87736,417.60757 332.59375,417.78125 347.62196,417.50761 354.67145,412.08989 358.53125,409.1875 363.60249,403.88514 369.40433,398.55303 374.9375,392.15625 369.70183,401.66903 365.16278,408.24605 360.4375,413.28125 L 360.4375,417.53125 383.28125,413.6875 383.4375,351.59375 C 383.20609,342.80536 388.47873,309.17548 339.96875,309.09375 Z M 336.6875,363.15625 C 346.15639,363.2862 357.01538,367.95333 357.03125,379.1875 357.08025,389.40571 344.2312,394.89933 335.875,394.8125 327.51524,394.7257 316.42407,388.24268 316.375,378.28125 316.53516,369.37681 326.83453,362.92707 336.6875,363.15625 Z"
       id="path2284"
       style="fill:#ffffff;fill-opacity:1;fill-rule:evenodd;stroke:none"
       inkscape:connector-curvature="0" /><path
       d="M 398.50106,314.83145 398.34601,417.65838 424.95814,412.53114 425.00304,354.22957 C 425.00904,345.54868 437.40858,335.40506 452.96574,335.5667 456.26776,329.59262 462.47444,314.32451 463.98662,310.85156 429.23013,310.76826 428.78765,320.84149 422.74264,325.79673 422.67954,316.34388 422.72134,310.66932 422.72134,310.66932 L 398.50114,314.83145 Z"
       id="path2286"
       style="fill:#ffffff;fill-opacity:1;fill-rule:evenodd;stroke:none"
       inkscape:connector-curvature="0" /><path
       d="M 548.2688,328.33058 C 548.01184,328.2099 534.38942,312.39639 507.00242,312.27168 481.34993,311.8453 452.57664,321.79063 452.11611,364.80448 452.34068,402.623 479.75631,417.40257 507.14751,417.69075 536.46043,417.99526 548.12405,399.36128 548.82366,398.89951 545.32604,395.86741 532.22574,382.88641 532.22574,382.88641 532.22574,382.88641 524.04338,394.53743 508.16772,394.68554 492.2883,394.83674 478.48527,382.41229 478.28967,365.07649 478.08618,347.74054 490.97848,338.34828 508.28692,337.58962 523.27158,337.58662 531.91662,347.26296 531.91662,347.26296 L 548.2688,328.33058 Z"
       id="path2288"
       style="fill:#ffffff;fill-opacity:1;fill-rule:evenodd;stroke:none"
       inkscape:connector-curvature="0" /><path
       d="M 581.8125,278.84375 556.6875,284.75 556.875,418.6875 581.625,414.21875 581.90625,351.1875 C 581.95915,344.57823 591.46752,334.42834 607.34375,334.75 622.52348,334.90775 625.91611,344.86767 625.875,346.125 L 626.3125,419.09375 650.71875,414.78125 650.81245,337.40625 C 650.97315,329.96086 634.50412,314.23671 608.0312,314.125 595.45033,314.1452 588.48305,316.99325 584.93745,319.09375 578.87089,323.7794 571.93765,328.26918 565.12495,334 571.42304,325.90901 576.71046,320.31484 581.87495,316.15625 L 581.81245,278.84375 Z"
       id="path2290"
       style="fill:#ffffff;fill-opacity:1;fill-rule:evenodd;stroke:none"
       inkscape:connector-curvature="0" /></g></svg>