<?xml version="1.0" encoding="UTF-8" standalone="no"?>
<svg
   xmlns:dc="http://purl.org/dc/elements/1.1/"
   xmlns:cc="http://creativecommons.org/ns#"
   xmlns:rdf="http://www.w3.org/1999/02/22-rdf-syntax-ns#"
   xmlns:svg="http://www.w3.org/2000/svg"
   xmlns="http://www.w3.org/2000/svg"
   xmlns:sodipodi="http://sodipodi.sourceforge.net/DTD/sodipodi-0.dtd"
   xmlns:inkscape="http://www.inkscape.org/namespaces/inkscape"
   version="1.1"
   xml:space="preserve"
   height="128"
   width="128"
   enable-background="new 0 0 595.275 311.111"
   y="0px"
   x="0px"
   viewBox="0 0 128 127.99999"
   id="svg2"
   inkscape:version="0.91 r13725"
   sodipodi:docname="favicon-touch.svg"
   inkscape:export-filename="/home/chais/AUR/nextcloud-theme-material/material-light/core/img/favicon.png"
   inkscape:export-xdpi="22.5"
   inkscape:export-ydpi="22.5"><metadata
     id="metadata12"><rdf:RDF><cc:Work
         rdf:about=""><dc:format>image/svg+xml</dc:format><dc:type
           rdf:resource="http://purl.org/dc/dcmitype/StillImage" /></cc:Work></rdf:RDF></metadata><defs
     id="defs10" /><sodipodi:namedview
     pagecolor="#ffffff"
     bordercolor="#666666"
     borderopacity="1"
     objecttolerance="10"
     gridtolerance="10"
     guidetolerance="10"
     inkscape:pageopacity="0"
     inkscape:pageshadow="2"
     inkscape:window-width="640"
     inkscape:window-height="480"
     id="namedview8"
     showgrid="false"
     inkscape:zoom="3.9001358"
     inkscape:cx="-2.2953936"
     inkscape:cy="54.328656"
     inkscape:current-layer="svg2" /><rect
     rx="20"
     ry="20"
     height="128"
     width="128"
     y="-.0000015"
     x="0"
     fill="#745bca"
     id="rect4"
     style="fill:#1794d1;fill-opacity:1" /><path
     style="fill:#ffffff"
     d="M 64 24 C 45.667456 24.01063 30.270986 37.795684 28.242188 56.015625 C 28.161486 56.009935 28.080764 56.00471 28 56 C 16.954305 56 8 64.954305 8 76 C 8 87.045695 16.954305 96 28 96 L 64 96 L 96 96 C 109.25483 96 120 85.254834 120 72 C 119.99152 59.499808 110.3894 49.098971 97.929688 48.09375 C 92.877407 33.676841 79.276533 24.018766 64 24 z M 64.035156 35.988281 C 68.427238 46.295247 69.463676 49.464645 82.271484 73.310547 C 80.652012 72.338189 78.573645 71.466893 75.671875 70.712891 C 79.893599 72.879759 81.963021 74.881999 83.947266 76.419922 C 85.206976 78.755813 86.527999 81.208846 88.005859 83.929688 C 80.510902 79.602714 74.68318 76.905812 69.253906 75.84375 C 69.434423 75.026514 69.537873 74.144459 69.560547 73.228516 C 69.681104 68.360833 67.349201 64.207283 64.349609 63.953125 C 61.350018 63.698967 58.817825 67.440914 58.697266 72.308594 L 58.689453 72.552734 C 58.680351 73.696847 58.813133 74.792924 59.048828 75.806641 C 53.559961 76.838497 47.670023 79.543371 40.072266 83.929688 C 49.739036 66.56047 54.502496 57.522146 57.542969 51.177734 C 59.13426 52.516 61.265078 53.805308 64.386719 55.089844 C 61.483132 53.059083 59.694897 51.262763 58.238281 49.71875 C 60.614004 44.642719 61.901341 41.219826 64.035156 35.988281 z "
     transform="translate(0,-3.8146973e-6)"
     id="path6" /></svg>